<?xml version="1.0" encoding="utf-8"?>
<!-- Generator: Adobe Illustrator 26.0.1, SVG Export Plug-In . SVG Version: 6.00 Build 0)  -->
<svg version="1.1" id="Calque_1" xmlns="http://www.w3.org/2000/svg" xmlns:xlink="http://www.w3.org/1999/xlink" x="0px" y="0px"
	 viewBox="0 0 684.5 212.2" style="enable-background:new 0 0 684.5 212.2;" xml:space="preserve">
<style type="text/css">
	.st0{fill:#008B6C;}
	.st1{fill:#DEDD3A;}
	.st2{fill:#008AC9;}
	.st3{fill:#DD0059;}
	.st4{fill:#C2D197;}
	.st5{fill:#9BD5E3;}
	.st6{fill:#FFE248;}
	.st7{fill:#ED7924;}
	.st8{fill:#CDBFB6;}
	.st9{fill:#00A276;}
	.st10{fill:#FDFDFD;}
	.st11{fill:#FEFEFE;}
</style>
<g>
	<g>
		<path class="st0" d="M320.5,0.9c15.9-0.3,31.8-0.5,47.7-0.7c11.1-0.2,22.2-0.3,33.3-0.1c10.2,0.2,20.5,0.2,30.7,1.3
			c2.1,0.2,4.1,0.5,6.1,1c1.1,0.3,1.7,0.9,1.6,2.2c-0.5,7-0.9,14-1.4,21c-0.5,7.2-1.1,14.5-1.7,21.7c-0.8,9.5-1.5,18.9-2.3,28.4
			c-0.2,3-0.5,6.1-0.7,9.1c-0.1,1.9-0.2,1.9-2.1,2c-10,0.2-20,0.3-30,0.5c-20.2,0.3-40.4,0.6-60.7,1c-9.6,0.2-19.2,0.3-28.8,0.5
			c-20.3,0.3-40.6,0.6-60.9,1c-9.8,0.2-19.7,0.3-29.5,0.5c-1.4,0-2.7,0.1-4.1,0.1c-1,0.1-1.4-0.3-1.4-1.4c-0.2-3.7-0.5-7.5-0.8-11.2
			c-0.7-11.4-1.4-22.8-2.1-34.2c-0.8-12.4-1.6-24.9-2.4-37.3c-0.1-2.1-0.1-2.1,1.9-2.1c21.1-0.7,42.2-1.3,63.3-2
			C291.1,1.8,305.8,1.3,320.5,0.9z"/>
		<path class="st1" d="M419.4,165.4c-43.5,0-87,0-130.5,0c-2.6,0-5.3-0.1-7.9,0c-1.3,0-1.7-0.4-1.6-1.7c0.3-7.2,0.6-14.4,0.9-21.5
			c0.2-3.9,0.4-7.8,0.5-11.7c0.4-9.6,0.8-19.2,1.1-28.7c0-0.2,0-0.3,0-0.5c0.1-2,0.1-2,2-2c9.8-0.2,19.7-0.4,29.5-0.6
			c13.7-0.3,27.5-0.6,41.2-1c6-0.2,12-0.3,18-0.4c15.4-0.4,30.8-0.6,46.3-1.1c8.2-0.2,16.3-0.1,24.5-0.5c10.8-0.4,21.6-0.2,32.4-0.5
			c19.9-0.5,39.8-0.4,59.7-0.1c6.1,0.1,12.1,0.1,18.2,0.8c1.1,0.1,2.2,0.3,3.3,0.5c1.9,0.3,2.1,0.6,2.1,2.5c0,3.8,0,7.5,0,11.3
			c0.1,17.5,0.1,35,0.2,52.5c0,0.3,0,0.6,0,1c0,2.3,0,2.4-2.4,2.4c-38.9,0-77.9-0.1-116.8-0.1c-7,0-13.9,0-20.9,0
			C419.4,165.6,419.4,165.5,419.4,165.4z"/>
		<path class="st2" d="M70.8,8.1c19.8-0.5,35.4-0.8,50.9-1.2c8.4-0.2,16.8-0.5,25.2-0.7c2-0.1,1.9,0,2.1,1.9
			c0.8,10.5,1.6,21,2.3,31.6c0.9,13.5,1.6,27,1.1,40.5c-0.1,2.6-0.4,5.3-0.9,7.8c-0.1,0.5-0.3,1.1-0.4,1.6c-0.8,2.2-1.1,2.5-3.4,2.5
			c-5.9,0-11.8-0.1-17.8-0.1c-6.9,0-13.8-0.1-20.6-0.2c-19.7-0.2-39.5-0.5-59.2-0.7c-9.7-0.1-19.4-0.1-29-0.2
			c-5.6-0.1-11.2-0.2-16.8-0.3c-1.7,0-1.8,0-1.8-1.9C2.2,83,2.2,77.2,2.1,71.4C1.7,52,1.4,32.5,1,13C1,10,1,9.9,4,9.9
			c12.9-0.3,25.7-0.6,38.6-1C53.4,8.6,64.2,8.3,70.8,8.1z"/>
		<path class="st3" d="M179.9,102.3c5,0.2,10.1,0.4,15.1,0.6c11.2,0.4,22.4,0.8,33.6,1.2c13.3,0.5,26.7,1,40,1.5c0.2,0,0.5,0,0.7,0
			c1.2-0.1,1.7,0.4,1.6,1.7c-0.3,3.5-0.4,7-0.7,10.5c-0.5,6.1-1.1,12.3-1.8,18.4c-0.8,7.6-1.8,15.2-3.8,22.7c-0.5,1.8-1,3.5-1.9,5.2
			c-0.7,1.3-1.6,2-3.2,2.1c-4.3,0.3-8.6,0.3-12.9,0.2c-17.8,0-35.7-0.1-53.5-0.2c-15-0.1-30.1-0.3-45.1-0.5
			c-12.6-0.1-25.1-0.3-37.7-0.5c-9.4-0.1-18.9-0.3-28.3-0.4c-0.2,0-0.5,0-0.7,0c-2.2,0-2.2,0-1.9-2.3c0.3-2.3,0.7-4.6,1.1-6.9
			c1.9-11.8,3.8-23.7,5.6-35.5c1-6.3,2-12.6,3-18.9c0.3-2.1,0.4-2.1,2.6-2c16.9,0.6,33.9,1.2,50.8,1.9c10.6,0.4,21.3,0.8,31.9,1.1
			c1.8,0.1,3.7,0,5.5,0C179.9,102.2,179.9,102.3,179.9,102.3z"/>
		<path class="st4" d="M181.4,5.2c5.9,0,11.8,0,17.7,0c2.7,0,2.6-0.1,2.6,2.7c0,6.2-0.1,12.3,0.1,18.5c0.5,13.3,0.1,26.7,0.5,40
			c0.2,6.8,0.2,13.6,0.3,20.4c0,2.3,0,2.2-2.2,2.5c-4.2,0.5-8.4,1.1-12.6,1.6c-4,0.5-7.9,1.1-11.9,1.2c-3.5,0.1-7,0.7-10.5,0.1
			c-0.6-0.1-1.3-0.1-1.9-0.2c-3.7-0.7-4.2-1.4-4.1-5.1c0-4.7-0.1-9.4,0.1-14.1c0.5-8.5,0.1-17.1,0.5-25.6c0.4-8.1,0.1-16.1,0.5-24.2
			c0.3-5.2,0.2-10.4,0.3-15.6c0-2,0.1-2.1,2.2-2.1C169.3,5.2,175.3,5.2,181.4,5.2z"/>
		<path class="st5" d="M499.2,2.3c10.7,0,21.4,0.3,32.1-0.1c7.7-0.2,15.3-0.2,23-0.3c2.7,0,2.4-0.3,2.8,2.4c1,7.1,1.9,14.2,1.6,21.4
			c0,0.5,0,1-0.1,1.4c-0.6,3.6-1,3.9-4.7,4.5c-2,0.3-4,0.4-6,0.4c-6.1-0.1-12.1,0.8-18.2,0.4c-9.2-0.6-18.4-0.1-27.5-0.5
			c-5.1-0.3-10.2,0-15.3-0.4c-4.9-0.4-9.7-0.1-14.6-0.5c-4-0.3-8-0.1-12-0.5c-2.7-0.2-5.4-0.4-8.1-0.4c-1.1,0-1.5-0.5-1.5-1.6
			c0-8.1,0-16.1,0-24.2c0-1.3,0.6-1.6,1.7-1.6c1.4,0.1,2.9,0.1,4.3,0C471,2.2,485.1,2.4,499.2,2.3z"/>
		<path class="st6" d="M38.9,95.9c10.9,0,21.7,0,32.6,0c0.6,0,1.1,0,1.7,0c1-0.1,1.4,0.3,1.5,1.4c0,2.2,0.2,4.5,0.3,6.7
			c0.3,4.9,0.4,9.7,0.7,14.6c0.1,2.9,0.3,5.7,0.4,8.6c0.1,1.7,0,1.8-1.6,1.8c-3.4,0.1-6.9,0.3-10.3,0.4c-10.5,0.3-21.1,0.4-31.6,0.8
			c-6.3,0.2-12.6,0.3-18.9,0.2c-2.9,0-5.7-0.3-8.6-0.4c-0.6,0-1.1-0.2-1.6-0.3c-1.1-0.1-1.6-0.7-1.5-1.8c0.6-5.9,0.2-11.8,0.6-17.7
			c0.3-3.7,0.2-7.5,0.3-11.3c0-0.6,0-1.3,0.1-1.9c0.1-0.6,0.4-1,1.1-1c0.6,0,1.3,0,1.9,0C16.8,95.9,27.8,95.9,38.9,95.9z"/>
		<path class="st7" d="M558.8,62.4c0,7.5,0,15,0,22.5c0,2.2,0,2.3-2.2,2.2c-13.9-0.6-27.8-1.2-41.6-1.8c-1.7-0.1-1.7-0.1-1.7-1.7
			c0-5.7,0-11.3,0-17c0-8.5,0-16.9,0-25.4c0-2.5-0.4-2.5,2.4-2.5c12.1-0.3,24.1-0.6,36.2-1c1.8,0,3.7-0.1,5.5-0.2
			c1.2-0.1,1.5,0.4,1.5,1.5c0,3.7,0,7.3,0,11C558.8,54.1,558.8,58.2,558.8,62.4z"/>
		<path class="st8" d="M37.4,165.9c-11.1,0-22.2,0-33.3,0c-2.5,0-2.8-0.2-2.8-2.7c0-4.2-0.4-8.3-0.7-12.4c-0.2-3.7-0.3-7.3-0.6-11
			c-0.1-1.5,0-1.6,1.5-1.7c1-0.1,2.1,0,3.1,0c9.7,0,19.3-0.3,29-0.7c10.9-0.4,21.9-0.1,32.8-0.3c2.1,0,4.1,0.5,6.2,0.5
			c1.1,0,1.6,0.6,1.5,1.7c-0.2,4.4,0.3,8.8-0.4,13.1c-0.1,0.7-0.1,1.4-0.1,2.2c0,2.9,0,5.8-0.1,8.6c-0.1,2.5-0.3,2.7-2.8,2.7
			C59.6,165.9,48.5,165.9,37.4,165.9z"/>
		<path class="st9" d="M474.4,86.3c-4.7,0-11-2.2-16.3-6.9c-10.4-9.2-10.7-24-0.7-33.6c10.6-10.3,29.4-10,39.7,0.6
			c9.4,9.7,8.7,24.6-1.7,33.3C490.2,84.1,483.8,86.4,474.4,86.3z"/>
		<g>
			<path class="st10" d="M341.1,186.1c-4.2-0.4-8.4,0.3-12.8-0.1c0,0.7,0,1.2,0,1.6c0.1,5.1,0.1,10.2,0.1,15.3c0,2.5-0.1,5-0.2,7.4
				c0,0.7,0,1.3,1,1.2c3.3-0.3,6.6,0.2,9.8,0c6-0.3,10.3-4.1,11.5-10c0.5-2.2,0.4-4.4,0-6.7C349.6,189.5,346.6,186.6,341.1,186.1z
				 M346.5,203.8c-1.2,3.6-3.8,5.6-7.5,6.2c-2,0.3-4,0.1-6,0.1c-1.1,0-1.3-0.6-1.3-1.5c0-3.2,0-6.4,0-9.6c0,0,0,0,0,0
				c0-3.1,0-6.2,0-9.3c0-1.1,0.2-1.7,1.6-1.8c2.2-0.1,4.4-0.4,6.7,0c3.8,0.6,6.1,2.5,7,6.3C347.6,197.4,347.6,200.7,346.5,203.8z"/>
			<path class="st10" d="M162.2,197c2-1.7,2.9-3.8,2.4-6.4c-0.5-2.6-2.3-3.8-4.8-4.4c-1.3-0.3-2.5-0.2-3.8-0.2c-1.7,0-3.4,0.1-5,0
				c-2,0-2,0-1.9,1.9c0.4,7.3,0.4,14.5,0,21.8c0,0.5-0.2,1.1,0.2,1.7c1,0,2,0,3.2,0c0-0.5,0-0.8,0-1.1c-0.1-3.3-0.1-6.5-0.2-9.8
				c0-0.4-0.2-0.8,0.3-1c0.5-0.2,0.9-0.1,1.3,0.3c0.4,0.4,0.8,0.8,1.1,1.2c2.1,2.4,4.1,4.9,5.7,7.7c1.3,2.3,3,3.3,5.5,2.8
				c0.2,0,0.3-0.1,0.3-0.4c-3-3.9-6-7.8-9.1-11.9C159.2,198.6,160.8,198.1,162.2,197z M153.4,197.9c-0.8,0-1.1-0.4-1.1-1.2
				c0-1.4,0-2.7,0-4.1c0,0,0.1,0,0.1,0c0-0.7,0-1.4,0-2.2c0.1-3-0.6-3,3.2-3c0.5,0,1,0,1.4,0c2.3,0.3,3.9,1.6,4.3,3.5
				c0.5,2.3-0.4,4.6-2.4,5.8C157.2,197.8,155.3,198.1,153.4,197.9z"/>
			<path class="st10" d="M230.4,196.6c1.8-1.8,2.4-3.9,1.8-6.4c-0.6-2.3-2.2-3.3-4.4-3.9c-1.1-0.3-2.2-0.3-3.3-0.3c-2,0-4,0.1-6,0.1
				c-1.8,0-1.8,0-1.7,1.8c0.4,7.3,0.4,14.7,0,22c0,0.5-0.2,1,0.2,1.4c0.6,0.3,1.2,0.1,1.8,0.1c1.5,0,1.5,0,1.5-1.5
				c-0.1-3-0.2-6.1-0.2-9.1c0-0.5-0.3-1.2,0.5-1.4c0.6-0.1,1.1,0.2,1.4,0.6c0.3,0.4,0.7,0.8,1.1,1.3c1.8,2.4,3.8,4.7,5.4,7.3
				c1.4,2.2,2.9,3.4,5.5,2.8c0.2,0,0.3-0.1,0.3-0.5c-2.9-3.8-6-7.8-9.1-11.9C227.1,198.5,229,198,230.4,196.6z M221,197.9
				c-0.8-0.1-1.1-0.5-1-1.3c0-1.4,0-2.7,0-4.1c0,0,0.1,0,0.1,0c0-1.2,0-2.4,0-3.6c0-1,0.3-1.5,1.4-1.5c1.1,0,2.2-0.1,3.3,0
				c2.3,0.3,3.9,1.6,4.2,3.6c0.4,2.3-0.4,4.4-2.3,5.6C225,197.9,223,198.1,221,197.9z"/>
			<path class="st10" d="M116.1,186.1c-0.7,0-1.2,0-1.2,1c0.1,2.2,0.2,4.3,0.2,6.5c0,3.8,0,7.6,0,11.9c-6.4-6.7-12.1-13.4-18.3-19.8
				c0,8.6-0.3,17.2-0.9,25.8c1,0,1.8,0.3,2.5-0.3c-0.4-6.3-0.5-12.5-0.2-19.4c6.4,7,12.3,13.5,18.3,20.2c0.3-0.9,0.3-1.6,0.3-2.4
				c0-7.2-0.2-14.4,0.4-21.6c0-0.3,0-0.6,0-1C117.4,186.1,116.8,186.1,116.1,186.1z"/>
			<path class="st10" d="M538.5,200c-1.1,0-2,0-3.1,0c0,2.7-0.1,5.3,0,7.8c0.1,1.4-0.6,1.9-1.9,2.2c-1.8,0.4-3.6,0.6-5.5,0.4
				c-4.4-0.5-7.6-3.4-8.6-7.8c-0.5-2.4-0.5-4.7-0.1-7.1c1.5-9.3,11.7-10.5,16.8-6.2c0.4,0.4,0.7,1,1.4,1c0.5-0.3,0.4-0.7,0.5-1.1
				c0.5-1.8,0.5-1.8-1.3-2.5c-3.1-1.3-6.4-1.5-9.6-1.2c-6.3,0.7-10.4,4.4-11.4,10.1c-0.4,2.4-0.4,4.9,0.3,7.4c1,4,3.5,6.8,7.4,8.1
				c4.8,1.6,9.6,0.8,14.3-0.6c0.5-0.2,0.8-0.4,0.8-1C538.5,206.4,538.5,203.3,538.5,200z"/>
			<path class="st10" d="M377.5,186.4c0.3,4.4,0.2,8.8,0.2,13.2c0,1.8-0.2,3.7-0.7,5.4c-1.1,3.7-3.6,5.5-7.5,5.3
				c-4-0.2-6.2-2-7.1-5.8c-0.7-2.9-0.4-5.9-0.4-8.8c0-3.2,0.1-6.3,0.4-9.5c-1.2,0-2.1,0-3.5,0c0.4,5.9,0,11.7,0.2,17.6
				c0,0.4,0,0.8,0.1,1.2c0.4,2,1.2,3.8,2.8,5.2c2.7,2.5,11.2,3.2,14.7-0.7c1-1.1,1.7-2.3,2.2-3.7c0.5-1.3,0.6-2.6,0.6-4
				c0.1-3.9,0.3-7.8,0.4-11.7c0-1.2,0.1-2.5,0.2-4C379.1,186.4,378.3,185.8,377.5,186.4z"/>
			<path class="st10" d="M203.6,186.1c-0.9-0.1-1.8,0-2.6,0c-1.8,0-3.7,0.1-5.5,0c-1.3-0.1-1.5,0.4-1.4,1.5
				c0.4,4.9,0.4,9.7,0.3,14.6c0,3,0,6,0,9.3c0.5,0,1.1-0.1,1.8,0c1.2,0.2,1.5-0.2,1.4-1.4c-0.2-2.5-0.2-5.1-0.2-7.6
				c0-2.3,0-2.3,2.2-2.3c2.3,0,4.6-0.2,6.7-1.4c2.8-1.6,4.2-4.9,3.4-8.2C209.1,187.9,207,186.3,203.6,186.1z M202.4,198.4
				c-0.4,0.1-0.8,0.1-1.2,0.2c-3.8,0.4-3.8,0.4-3.8-3.3c0-0.8,0-1.6,0-2.4c0-1.5,0-3,0-4.5c0-0.6,0.2-0.9,0.8-0.9
				c1.8,0.1,3.7-0.2,5.4,0.4c1,0.3,1.7,0.8,2.2,1.7C207.9,192.7,206,197.4,202.4,198.4z"/>
			<path class="st10" d="M411.6,186.1c-1-0.1-2.1,0-3.1,0c-1.7,0-3.4,0-5,0c-1.5,0-1.5,0-1.4,1.6c0.4,7.5,0.4,15,0,22.5
				c0,0.4-0.1,0.8,0.2,1.2c0.9,0,2,0,3.1,0c0-1.6,0-3.1,0-4.6c0-1.6,0-3.2-0.1-4.8c0-2.2,0.2-2,1.9-1.9c2.6,0.1,5.1-0.1,7.4-1.6
				c3.2-2.1,3.6-5.2,3-8.2C417,187.8,414.8,186.3,411.6,186.1z M406.1,198.6c-0.7-0.1-0.9-0.5-0.9-1.2c0-1.5,0-3,0-4.5
				c0-1.4,0-2.9,0-4.3c0-0.6,0.1-1.1,0.9-1.1c1.7,0.1,3.5-0.2,5.2,0.3c1.8,0.5,2.8,1.7,3,3.6C414.9,197.1,411.1,199.2,406.1,198.6z"
				/>
			<path class="st10" d="M420.1,211.4c2.6,0.2,2.5,0.1,3.3-2c0.7-2.1,1.5-4.2,2.2-6.3c0.3-0.9,0.7-1.3,1.7-1.3c2.2,0,4.5,0,6.7,0
				c0.8,0,1.3,0.3,1.6,1.1c0.7,1.9,1.5,3.7,2.2,5.6c1.2,3.2,1.2,3.2,4.6,2.9c-1.7-5.4-9.9-24.7-11.1-25.9
				C427.5,194.1,423.9,202.6,420.1,211.4z M426.9,199.9c1.2-3,2.4-5.8,3.6-8.6c0.2,0,0.3,0.1,0.5,0.1c1.2,2.8,2.3,5.5,3.6,8.6
				C431.9,200,429.5,200,426.9,199.9z"/>
			<path class="st10" d="M501.4,186.7c-0.2-0.4-0.1-1-0.8-1.1c-0.6,0-0.7,0.6-0.9,1c-0.9,2.1-1.7,4.1-2.6,6.2
				c-2.6,6.1-5.3,12.3-8,18.6c2.6,0.1,2.6,0.1,3.2-1.9c0.7-2.2,1.6-4.3,2.3-6.5c0.3-0.9,0.8-1.3,1.7-1.2c2.2,0,4.3,0.1,6.5,0
				c1.1,0,1.5,0.5,1.9,1.4c0.6,1.8,1.4,3.6,2.1,5.3c0.4,1,0.3,2.3,1.2,2.8c0.8,0.5,2,0.2,3,0.2c0.1,0,0.2-0.2,0.4-0.3
				c-0.7-1.7-1.4-3.3-2.1-5C506.7,199.7,504,193.2,501.4,186.7z M495.9,199.9c1.2-3,2.4-5.8,3.7-9.1c1.6,3.1,2.7,6,3.9,9.1
				C500.9,199.9,498.6,199.9,495.9,199.9z"/>
			<path class="st10" d="M560,210.3c-0.2-1.5-1.2-0.7-1.8-0.7c-2.2,0-4.3,0.1-6.5,0.3c-0.9,0.1-1.4-0.3-1.4-1.2c0-3.2,0-6.3,0-9.6
				c2.4-0.2,4.6,0,6.8,0.1c1.7,0.1,1.7,0.1,1.7-2.1c-2.5,0.1-4.8,0.2-7.1,0.4c-1,0.1-1.5-0.2-1.5-1.3c0.1-2.3,0.1-4.6,0.1-6.9
				c0-1.1,0.5-1.3,1.4-1.3c2.5,0.1,5.1,0.1,7.6,0.5c0.4-0.8,0.3-1.5,0.2-2.3c-4.1,0.2-8.2,0.2-12.5,0c0.2,8.3,0.3,16.4,0,24.6
				c0,0.9,0.4,1,1.2,1c3.4,0,6.7,0,10.1,0C559.3,211.6,560.2,211.8,560,210.3z"/>
			<path class="st10" d="M263.3,198.1c-1.1-0.6-2.2-1-3.3-1.5c-1-0.4-1.9-0.9-2.7-1.5c-1.6-1.4-1.9-3.1-1.4-5c0.5-1.7,1.7-2.7,3.4-3
				c1.9-0.4,3.4,0.3,4.5,2c0.3,0.4,0.3,1.1,1.1,1.2c0.2-0.6,0.3-1.2,0.6-1.8c0.5-1,0.2-1.6-0.8-2c-3.1-1.4-6.2-1.3-9.1,0.5
				c-1.6,1-2.5,2.6-2.7,4.6c-0.3,3.6,0.8,5.7,4.1,7.4c1.4,0.7,2.9,1.3,4.3,2c1.6,0.8,2.7,2,2.8,3.9c0.1,2.2-1,4.2-2.8,5.1
				c-2,1-4.7,0.5-6.4-1.2c-0.6-0.6-1.1-1.4-1.6-2c-0.6,0.4-0.5,1-0.6,1.5c-0.4,2-0.3,2.2,1.6,3.1c1.7,0.8,3.6,0.8,5.4,0.7
				c3.6-0.4,6.2-2.7,7.1-6.2C267.7,202.4,266.5,199.7,263.3,198.1z"/>
			<path class="st10" d="M303.9,197.7c-1-0.5-2.1-0.9-3.1-1.3c-0.9-0.4-1.9-0.9-2.6-1.7c-1.9-1.9-1.7-5.2,0.4-6.8
				c2.1-1.7,4.9-1.2,6.5,1.1c0.3,0.4,0.2,1.2,1,1.2c0.5-0.4,0.4-1,0.6-1.5c0.6-1.7,0.5-1.9-1.1-2.5c-2.1-0.9-4.3-1-6.6-0.3
				c-3.5,1.1-5.4,4.2-4.9,7.8c0.4,2.8,2.1,4.3,4.5,5.4c1.5,0.7,2.9,1.3,4.3,2.1c2,1.2,2.7,3,2.3,5.1c-0.4,2-1.6,3.5-3.6,4
				c-2.2,0.5-4.1-0.1-5.7-1.7c-0.6-0.6-0.8-1.5-1.8-2c-0.1,0.7-0.2,1.3-0.3,1.8c-0.3,1.8-0.3,2,1.3,2.7c3.2,1.4,6.4,1.3,9.4-0.5
				c0.8-0.5,1.5-1.2,2.1-2C309.6,204.6,308.4,199.9,303.9,197.7z"/>
			<path class="st10" d="M480.1,197.9c-1.1-0.5-2.2-0.9-3.3-1.4c-0.9-0.4-1.9-0.9-2.6-1.6c-1.9-1.9-1.8-5.1,0.3-6.8
				c2.1-1.7,4.9-1.3,6.5,1c0.3,0.4,0.3,1.1,0.9,1.3c0.7-0.4,0.5-1.1,0.7-1.7c0.5-1.5,0.4-1.7-1-2.3c-2.9-1.2-5.8-1.1-8.5,0.5
				c-1.3,0.7-2.1,1.9-2.6,3.3c-1.2,3.5,0,6.8,3.3,8.6c1.6,0.9,3.3,1.5,5,2.4c1.7,0.9,2.7,2.3,2.6,4.2c-0.1,2.2-0.9,3.9-2.9,4.8
				c-2.2,0.9-4.2,0.5-6-1.1c-0.7-0.6-1.2-1.4-2.1-2.5c-0.2,0.9-0.1,1.6-0.4,2.1c-0.6,1.3,0.1,1.9,1.1,2.4c2,1.1,4.1,1.2,6.3,0.9
				c3.2-0.5,5.4-2.3,6.5-5.3C485.1,202.8,483.8,199.7,480.1,197.9z"/>
			<path class="st10" d="M51.1,197.8c-1-0.5-2.1-0.8-3.1-1.3c-0.9-0.4-1.7-0.9-2.5-1.5c-1.5-1.2-1.9-2.9-1.4-4.8
				c0.5-1.8,1.7-2.9,3.5-3.2c1.9-0.4,3.4,0.3,4.5,2c0.2,0.4,0.3,0.9,0.9,1.2c0.6-0.5,0.4-1.1,0.6-1.6c0.7-1.4,0.6-1.7-1.2-2.5
				c-2.1-0.9-4.3-0.9-6.6-0.2c-3.5,1.1-5.4,4.3-4.8,7.8c0.4,2.6,2.1,4.2,4.4,5.3c1.5,0.7,3.1,1.3,4.5,2.2c2.2,1.3,2.8,3.3,2,5.8
				c-0.7,2.2-2.5,3.5-4.9,3.4c-2,0-3.5-1-4.7-2.5c-0.3-0.4-0.3-1.4-1.3-1.1c-0.1,0.6,0,1.2-0.2,1.7c-0.7,1.4,0.1,2,1.2,2.6
				c2.8,1.4,5.7,1.4,8.6,0.1c1.9-0.8,3.2-2.3,4-4.3C56.2,202.9,54.9,199.7,51.1,197.8z"/>
			<path class="st10" d="M286,209.6c-2.2,0.1-4.5,0.2-6.7,0.3c-0.9,0-1.5-0.1-1.5-1.3c0-2.9,0-5.8-0.1-8.6c0-0.9,0.5-1,1.2-1
				c2.4,0,4.8,0,7.3,0c0.2-0.5,0.1-1.1,0-1.9c-2.3,0.1-4.5,0.3-6.7,0.3c-1.7,0-1.8,0-1.8-1.7c0-2.2,0.1-4.3,0.1-6.5
				c0-1,0.4-1.4,1.4-1.3c2.4,0.1,4.8,0.1,7.2,0.4c0.2,0,0.5,0.1,0.7-0.5c0.1-0.3,0-1-0.1-1.8c-4.2,0.2-8.4,0.1-12.6,0
				c0.2,8.2,0.3,16.2,0,24.1c0,1.1,0.2,1.5,1.4,1.5c3.4-0.1,6.7,0,10.1,0c0.8,0,1.4,0.1,1.4-1C287.4,209.3,286.7,209.5,286,209.6z"
				/>
			<path class="st10" d="M185.2,209.6c-2.2,0.1-4.5,0.2-6.7,0.3c-1.2,0.1-1.7-0.3-1.7-1.6c0.1-2.6,0.1-5.3,0-7.9
				c0-1.3,0.5-1.4,1.5-1.4c2.3,0.1,4.6,0,7,0c0.2-0.4,0.1-1,0.1-1.9c-2.6,0.1-4.9,0.2-7.3,0.4c-0.9,0-1.3-0.3-1.3-1.2
				c0.1-2.2,0.1-4.5,0-6.7c0-1.3,0.4-1.7,1.7-1.6c2.1,0.2,4.3,0,6.4,0.4c1.1,0.2,1.5-0.2,1.3-1.3c0-0.3,0.2-0.6-0.4-0.9
				c-3.6,0.1-7.4,0.2-11.3,0c-1.1-0.1-1.1,0.5-1.1,1.3c0.1,1.8,0.2,3.7,0.3,5.5c0.1,5.7,0.2,11.5-0.3,17.2c-0.1,1.1,0.2,1.6,1.4,1.5
				c3.4-0.2,6.9-0.2,10.3,0c1,0.1,1.2-0.3,1.2-1.2C186.5,209.3,185.8,209.5,185.2,209.6z"/>
			<path class="st10" d="M80.4,209.9c-1.7,0-1.8,0-1.8-1.7c-0.1-2.6,0-5.3,0-7.9c0-1.1,0.5-1.3,1.4-1.3c2.2,0.1,4.3,0.2,6.5,0.3
				c0.2,0,0.5,0,0.6-0.3c0.2-0.6,0.2-1.2,0-1.8c-1-0.2-1.9,0-2.9,0c-1.5,0.1-3,0.1-4.5,0.2c-0.7,0-1.1-0.2-1.1-1
				c0.1-2.8-0.2-5.7,0.4-8.6c3.1,0,6,0,8.9,0.5c0.3-0.9,0.3-1.5,0.1-2.3c-4.3,0.2-8.4,0.1-12.6,0c0.3,8.6,0.3,16.9,0,25.5
				c3.9-0.1,7.6-0.2,11.3,0c1.6,0.1,1.6,0,1.4-1.7C85.5,209.9,83,209.9,80.4,209.9z"/>
			<path class="st10" d="M33.2,209.6c-2.3,0.1-4.6,0.2-6.9,0.3c-1,0.1-1.4-0.3-1.4-1.4c0-2.8,0-5.6-0.1-8.4c0-1,0.5-1.2,1.3-1.1
				c2.4,0,4.7,0,7.2,0c0.3-0.5,0.1-1.1,0.1-1.9c-2.5,0.1-4.8,0.2-7.1,0.4c-1,0.1-1.5-0.3-1.4-1.4c0-2.1,0-4.2,0.1-6.2
				c0.1-2,0.1-2,2-1.9c2.4,0,4.8,0.1,7.1,0.4c0.4-0.7,0.3-1.4,0.2-2.3c-4.2,0.3-8.4,0.1-12.6,0c0.3,8.2,0.4,16.1,0,24
				c0,1.1,0,1.6,1.3,1.6c3.4-0.2,6.9-0.2,10.3,0c1,0.1,1.2-0.3,1.2-1.2C34.4,209.3,33.8,209.5,33.2,209.6z"/>
			<path class="st10" d="M460.5,188.3c-0.2,0.5-0.5,1-0.7,1.5c-1.5,2.9-3,5.9-4.9,8.9c-2-3.1-3.7-6.2-5.1-9.4
				c-1.1-2.4-2.4-3.7-5.1-3.1c-0.1,0-0.1,0.1-0.3,0.1c0.1,0.6,0.5,1.1,0.8,1.7c2.2,3.9,4.4,7.8,6.7,11.6c0.6,1.1,0.9,2.1,0.9,3.4
				c-0.1,2.8,0,5.7,0,8.5c1.1,0,2.1,0,3,0c0-2.9,0.1-5.8,0-8.6c0-1.3,0.2-2.5,0.9-3.6c2.1-3.8,4.4-7.4,6.6-11.1
				c0.4-0.6,1-1.1,0.8-1.8C462.1,185.6,461,186.5,460.5,188.3z"/>
			<path class="st10" d="M124.1,186c0,0.8,0,1.5,0,2.3c2-0.1,3.7-0.3,5.5-0.3c2-0.1,2,0,2,1.9c0,3.3,0,6.7,0,10c0,3.8,0,7.6,0,11.4
				c3.4,0.3,3.3,0.3,3.1-3.1c-0.3-6.3-0.2-12.6-0.1-18.9c0-1,0.4-1.4,1.4-1.4c1.8,0.2,3.7,0.3,5.5,0.4c0.2,0,0.5,0,0.6-0.2
				c0-0.7,0-1.4,0-2.1C136.1,186.2,130.1,186.2,124.1,186z"/>
			<path class="st10" d="M12.9,209.5c-1.9,0.1-3.8,0.3-5.7,0.3c-2.8,0.1-2.9,0-2.9-2.8c-0.1-6.1-0.3-12.3,0.1-18.4
				c0.1-0.8,0.4-1.7-0.2-2.5c-1,0-2,0-3.1,0c0,1.3,0,2.4,0,3.5c0.1,6.8,0.1,13.6-0.1,20.3c0,0.7-0.4,1.7,1,1.6c3.7-0.2,7.3-0.2,11,0
				c0.9,0,1-0.4,1.1-1.1C14.1,209.5,13.6,209.5,12.9,209.5z"/>
			<path class="st10" d="M244.8,186.2c-1.3,0-2.3,0-3.5,0c0.4,8.4,0.4,16.8,0,25.2c1.2,0,2.2,0,3.5,0
				C244.3,202.9,244.4,194.6,244.8,186.2z"/>
		</g>
		<g>
			<path class="st11" d="M638,115c-2.3-0.3-4.3,0.3-5.7,2.1c-2.9-2.8-5.6-2.9-9-0.2c-0.1-0.4-0.2-0.7-0.3-1
				c-0.2-0.7-0.8-0.7-1.3-0.7c-0.7,0.1-0.6,0.6-0.6,1.1c0,4.2,0,8.5,0,12.7c0,0.8,0.4,0.9,1,0.9c0.7,0,1.3-0.1,1.2-1
				c0-0.6,0-1.3,0-1.9c0.1-2.3-0.2-4.6,0.2-6.9c0.5-2.3,1.8-3.3,4.1-3.1c1.9,0.1,2.7,1.2,2.7,3.7c0,2.7,0,5.4,0,8.1
				c0,0.8,0.2,1.1,1.1,1.1c0.9,0,1.3-0.2,1.3-1.2c-0.1-2.4,0-4.8,0-7.2c0-1,0.1-1.9,0.5-2.8c0.8-1.4,2.3-2.1,4.1-1.8
				c1.4,0.2,2.1,1,2.3,2.9c0.1,0.9,0.1,1.9,0.1,2.9c0,2.1,0,4.2,0,6.2c0,0.7,0.3,1,1,1c0.5,0,1.2,0.2,1.2-0.7
				c0-3.6,0.2-7.2-0.1-10.8C641.5,116.4,640,115.3,638,115z"/>
			<path class="st11" d="M624.2,87.1c-0.5,2-0.5,4.1,0.1,6.2c1,3.6,4.4,5.3,7.9,4c0.8-0.3,1.5-0.9,2.2-1.4c0.3,0.2,0.4,0.5,0.5,0.8
				c0.2,0.8,0.8,0.7,1.3,0.6c0.7-0.1,0.6-0.6,0.6-1.1c0-6.2,0-12.3,0-18.5c0-1-0.5-1.2-1.3-1.2c-0.9,0-1,0.5-1,1.2
				c0,2.1,0,4.1,0,6.1c-0.6,0.2-0.8-0.3-1.1-0.5C629.6,81.1,625.3,82.7,624.2,87.1z M634.2,87.2c0.3,1,0.4,2,0.3,3.1
				c0,0.9,0,1.7-0.2,2.6c-0.6,1.9-1.8,2.9-3.8,3c-1.8,0.1-3.2-0.9-3.8-2.7c-0.6-2.1-0.7-4.2,0.1-6.3c0.7-1.8,1.9-2.5,3.7-2.4
				C632.4,84.4,633.6,85.3,634.2,87.2z"/>
			<path class="st11" d="M646.5,63.7c0.2,1.2,0,2.4,0,3.6c0,1.4,0.1,2.7,0.1,4.1c1.9,0,1.9,0,1.9-1.9c0-5.7,0-11.5,0-17.2
				c0-0.4,0-0.8,0-1.2c0-0.8-0.5-0.8-1.1-0.8c-1.1-0.1-0.6,1.1-1.2,1.5c-0.3-0.2-0.5-0.4-0.8-0.6c-3.9-2.7-8.3-1.1-9.5,3.5
				c-0.5,1.8-0.5,3.6-0.1,5.4c1.2,4.9,5.5,6.5,9.7,3.6C645.9,63.1,646.4,62.6,646.5,63.7z M642.3,63.2c-1.9,0.1-3.3-0.8-3.9-2.8
				c-0.6-1.9-0.6-3.9,0-5.9c0.6-2,2-2.9,3.9-2.8c2,0.1,3.2,1.2,3.7,3.1c0.2,0.8,0.2,1.7,0.3,2.6c-0.1,0.8-0.1,1.6-0.2,2.4
				C645.7,62,644.4,63.1,642.3,63.2z"/>
			<path class="st11" d="M653.2,115c-1.8,0-3.2,0.7-4.5,1.9c-0.1-0.2-0.3-0.3-0.3-0.4c-0.1-0.8-0.4-1.4-1.4-1.2
				c-1,0.2-0.7,1-0.7,1.5c0,6.1,0,12.3,0,18.5c0,0.8,0,1.4,1.1,1.4c1.1,0,1.1-0.6,1.1-1.4c0-2.1,0-4.3,0-6.7
				c0.8,0.5,1.3,0.8,1.9,1.1c3.4,1.6,7,0.2,8.2-3.3c0.9-2.5,0.9-5,0-7.5C657.8,116.2,656,115.1,653.2,115z M656.5,125.5
				c-0.6,1.9-2.2,2.9-4,2.7c-2.1-0.2-3.2-1.1-3.6-3.2c-0.2-0.9-0.2-1.7-0.4-2.6c0.1-0.8,0.2-1.6,0.3-2.4c0.4-2.1,1.6-3,3.6-3.1
				c2-0.1,3.4,0.8,4,2.7C657.2,121.6,657.1,123.6,656.5,125.5z"/>
			<path class="st11" d="M605.5,64.9c0.7,0,1.3-0.1,1.2-1c0-0.7,0-1.4,0-2.2c0-2.2-0.1-4.3,0.2-6.5c0.3-2.4,2.2-3.7,4.7-3.4
				c2,0.2,2.8,1.3,2.8,3.9c0,2.6,0,5.3,0,7.9c0,0.8,0.2,1.2,1.1,1.2c0.9,0,1.3-0.2,1.3-1.2c0-3,0.1-6.1-0.1-9.1
				c-0.1-2.9-1.8-4.4-4.7-4.7c-1.9-0.2-3.6,0.5-5.3,1.9c0-2.3,0-4.3,0-6.3c0-0.9,0-1.5-1.2-1.5c-1.3,0-1.1,0.8-1.1,1.6
				c0,2.3,0,4.6,0,6.9c0,3.7,0,7.5,0,11.2C604.3,64.6,604.7,64.9,605.5,64.9z"/>
			<path class="st11" d="M679.9,64.6c0.2,0,0.3-0.1,0.4-0.2c0.8-0.4,0.7-1.1,0.5-1.6c-0.2-0.6-0.7-0.3-1.2-0.2
				c-0.7,0.2-1.4,0.3-2.1,0.5c-3.7,0.6-5.7-1.1-6-4.9c0.8-0.4,1.6-0.2,2.3-0.2c2.2,0,4.3,0,6.5,0c0.6,0,1.1,0,1.2-0.8
				c0.4-3-1.4-6.2-4.2-7c-3.2-1-6.4,0.5-7.6,3.7c-0.9,2.3-1,4.7-0.1,7c0.7,2,2.1,3.3,4.2,3.9C675.9,65.4,677.9,65.1,679.9,64.6z
				 M675.7,51.8c2.1,0.1,3.1,1.3,3.4,4.2c-2.4,0-4.9,0-7.3,0C672.1,53.1,673.5,51.7,675.7,51.8z"/>
			<path class="st11" d="M681,115.5c-2.7-1.2-5.9-0.4-7.5,1.8c-1.1,1.5-1.6,3.3-1.5,5.2c0,0.2,0,0.3,0,0.5c0.1,5.9,5.8,9.2,11.1,6.5
				c0.8-0.4,0.9-0.9,0.7-1.5c-0.2-0.9-0.9-0.5-1.3-0.3c-1.2,0.4-2.5,0.5-3.8,0.5c-2.3-0.1-3.7-1.4-4.2-3.5c-0.3-1.3-0.1-1.5,1.3-1.5
				c2.5,0,4.9,0,7.4,0c0.6,0,1.2,0.1,1.2-0.8C684.6,119.9,683.8,116.7,681,115.5z M680.8,121.2c-2.1,0-4.1,0-6.3,0
				c0.5-3.2,1.8-4.4,4.3-4.3c1.8,0.1,3.2,1.7,3.2,3.5C682,121.3,681.4,121.2,680.8,121.2z"/>
			<path class="st11" d="M624.5,65.1c1.9,0.1,3.6-0.5,5.1-2.2c0.3,0.6,0.4,1,0.6,1.4c0.2,0.6,0.7,0.5,1.2,0.5
				c0.5-0.1,0.6-0.5,0.6-0.9c-0.1-3.4,0.2-6.9-0.1-10.3c-0.1-1.4-0.7-2.5-2-3.1c-2.5-1.2-5-0.7-7.4,0.3c-0.6,0.2-0.5,0.7-0.3,1.2
				c0.2,0.5,0.5,0.8,1.1,0.6c0.7-0.2,1.3-0.5,2-0.7c3.2-0.7,4.6,0.5,4.4,3.9c-0.8,0.4-1.7,0.2-2.6,0.2c-1.3,0-2.5,0.3-3.8,0.7
				c-2.4,0.8-3.4,2.6-3,5C620.5,63.7,622.1,65,624.5,65.1z M623.9,58.5c1.2-0.7,2.5-0.5,3.4-0.7c2.5-0.2,2.7,0.1,2.2,2.2
				c-0.5,2.3-2.5,3.6-4.8,3.3c-1.1-0.2-1.9-0.7-2.1-1.9C622.4,60,622.8,59.1,623.9,58.5z"/>
			<path class="st11" d="M607,96.1c0.1,0.8,0.4,1.4,1.4,1.2c1-0.2,0.6-1,0.6-1.5c0-2.6-0.1-5.1,0-7.7c0.2-4.8-2.3-6-6.5-5.6
				c-1,0.1-2,0.4-3,0.8c-0.6,0.2-0.7,0.6-0.5,1.1c0.2,0.5,0.4,1,1.2,0.7c1.1-0.5,2.2-0.9,3.5-0.8c1.9,0.1,2.8,0.9,3,2.8
				c0.1,1.1-0.2,1.6-1.4,1.5c-1.8-0.1-3.5,0-5.2,0.7c-2.6,1-3.7,3.6-2.5,6c0.8,1.6,2.6,2.5,4.9,2.3c1.6-0.1,3-0.8,4.1-2
				C606.8,95.9,607,96,607,96.1z M602,95.8c-1.3-0.2-2.2-0.9-2.4-2c-0.2-1.2,0.4-2.3,1.6-2.9c1.5-0.6,3.1-0.7,4.7-0.7
				c1,0,0.7,0.8,0.8,1.4C606.7,94.3,604.6,96.1,602,95.8z"/>
			<path class="st11" d="M610.4,115c-3.4,0-5.8,1.8-6.5,4.9c-0.4,1.7-0.4,3.5,0,5.2c0.7,3.2,3.4,5.2,6.6,5.1c3.4-0.1,5.7-2,6.4-5.3
				c0.3-1.6,0.3-3.2,0-4.7C616.1,116.9,613.8,115,610.4,115z M614.4,125.2c-0.6,2-2.1,3.1-4,3.1c-1.9,0-3.5-1.1-4-3.1
				c-0.2-0.8-0.3-1.7-0.5-2.6c0.1-0.8,0.2-1.7,0.4-2.5c0.5-2,1.9-3.1,3.9-3.1c2.1,0,3.5,1,4.1,2.9
				C614.9,121.6,614.9,123.4,614.4,125.2z"/>
			<path class="st11" d="M653.1,60.6c0.1,2.9,1.7,4.2,4.6,4.5c2,0.2,3.7-0.5,5.1-1.7c0.4,0,0.5,0.1,0.5,0.3c0,1,0.6,1.2,1.4,1.1
				c0.8-0.1,0.6-0.8,0.6-1.3c0-1.9,0-3.8,0-5.7c0-2.2,0-4.3,0-6.5c0-0.9-0.3-1.1-1.1-1.1c-1,0-1.2,0.4-1.2,1.3c0,2.6,0,5.3-0.1,7.9
				c0,1.4-0.6,2.6-2,3.3c-2.9,1.5-5.5,0-5.6-3.3c-0.1-2.7,0-5.4,0-8.1c0-0.8-0.3-1.1-1.1-1.1c-0.8,0-1.2,0.3-1.2,1.1
				C653.1,54.4,652.9,57.5,653.1,60.6z"/>
			<path class="st11" d="M660.5,86.7c-0.1-2.5-1.6-3.9-4.1-4.2c-2.2-0.3-4.1,0.3-5.7,1.8c-0.2-0.2-0.3-0.3-0.3-0.4
				c0-0.9-0.4-1.3-1.4-1.2c-1,0.1-0.7,0.9-0.7,1.5c0,3,0,5.9,0,8.9c0,1.1,0,2.2,0,3.4c0,0.7,0.3,1,1,1c0.7,0,1.3,0,1.3-1
				c0-0.6,0-1.1,0-1.7c0.1-2.2-0.1-4.5,0.1-6.7c0.2-1.5,0.8-2.7,2.3-3.3c3-1.1,5.2,0.2,5.2,3.4c0.1,2.7,0,5.4,0,8.2
				c0,0.8,0.2,1.2,1.1,1.1c0.8,0,1.2-0.2,1.2-1.1C660.6,93.1,660.7,89.9,660.5,86.7z"/>
			<path class="st11" d="M668.8,128.2c-2.4,0.1-3.1-0.5-3.1-2.8c-0.1-1.9,0-3.8,0-5.8c0-2.6,0-2.6,2.7-2.7c0.6,0,1.6,0.4,1.6-0.9
				c0-1.1-0.8-0.9-1.5-1c-0.2,0-0.5,0-0.7,0c-1.8,0-1.8,0-2-1.9c0-0.5,0.1-1.2-0.6-1.4c-0.9-0.1-1.1,0.6-1.2,1.2
				c-0.2,1.3-0.8,2.2-2.1,2.6c-0.4,0.1-0.6,0.5-0.5,1c0.1,0.4,0.5,0.3,0.8,0.4c0.4,0,0.8-0.1,1.3,0.3c0,2.7,0,5.6,0,8.5
				c0.1,3.4,2.3,5,5.6,4.2c0.7-0.2,1.1-0.4,1-1.3C669.9,127.9,669.3,128.2,668.8,128.2z"/>
			<path class="st11" d="M599.6,64.9c1.3-0.3,1.7-1,1.2-2.4c-0.9,0.2-1.8,0.5-2.6,0.6c-2.6,0.4-4.3-0.7-5-3.3c-0.4-1.5-0.4-3,0-4.5
				c0.7-2.5,2.4-3.7,5-3.3c0.6,0.1,1.2,0.3,1.9,0.4c0.6,0.1,0.8-0.4,0.9-0.9c0.1-0.5,0.1-0.9-0.4-1.2c-3.5-1.7-8.3,0.3-9.5,3.9
				c-0.5,1.5-0.6,3.1-0.4,4.7C591.3,63.8,594.9,66.1,599.6,64.9z"/>
			<path class="st11" d="M598.3,117.1c0.5,0.1,1.1,0.3,1.6,0.4c0.8,0.1,0.9-0.5,1-1c0.1-0.4,0-0.7-0.4-0.9c-3.4-1.8-8.3,0.1-9.5,3.8
				c-0.4,1.4-0.6,2.8-0.5,4.3c0.5,6.1,4.8,7.3,9,6.4c1.3-0.3,1.7-1,1.2-2.5c-1.1,0.5-2.3,0.7-3.4,0.7c-2.3,0-3.5-0.9-4.2-3.1
				c-0.4-1.5-0.4-3-0.1-4.5C593.9,117.8,595.6,116.6,598.3,117.1z"/>
			<path class="st11" d="M593.7,100.1c0.1-5.4,0-10.8,0.1-16.2c0-0.9-0.4-1.3-1.3-1.3c-0.8,0-1.1,0.4-1.1,1.2c0,1.2,0,2.4,0,3.6
				c0,4,0,8,0,11.9c0,2.3-0.6,2.7-2.9,2.6c-0.2,0-0.5,0-0.8-0.1c-0.4,1.3-0.1,1.9,1.1,2.1C591.6,104.4,593.6,103,593.7,100.1z"/>
			<path class="st11" d="M621.9,83.3c0.2-0.9-0.6-0.8-1.1-0.8c-2.1-0.3-3.6,0.9-4.8,2.3c-0.5-0.2-0.5-0.5-0.5-0.8
				c0-0.9-0.3-1.4-1.3-1.2c-1,0.1-0.7,0.9-0.7,1.5c0,4,0,8,0,11.9c0,0.9,0.2,1.3,1.2,1.3c1,0,1.2-0.4,1.2-1.3
				c-0.1-2.1-0.1-4.3,0-6.4c0.1-3.3,1.6-5,4.9-5C621.9,84.6,621.8,83.9,621.9,83.3z"/>
			<path class="st11" d="M643.7,90.1c0-2.1,0-4.2,0-6.2c0-0.7-0.1-1.2-1-1.2c-0.8,0-1.3,0.2-1.3,1.2c0,4.2,0,8.3,0,12.5
				c0,0.9,0.4,1.1,1.2,1.1c0.7,0,1.2-0.1,1.2-1C643.7,94.3,643.7,92.2,643.7,90.1z"/>
			<path class="st11" d="M642.4,77.2c-0.9,0.2-1.3,0.8-1.2,1.7c0.1,0.8,0.5,1.3,1.4,1.3c1,0,1.3-0.7,1.3-1.6
				C643.9,77.8,643.2,77.1,642.4,77.2z"/>
			<path class="st11" d="M592.5,77.3c-1,0.1-1.3,0.8-1.2,1.7c0,0.9,0.5,1.3,1.4,1.3c0.8,0,1.3-0.7,1.2-1.7
				C593.8,77.7,593.3,77.2,592.5,77.3z"/>
			<path class="st11" d="M646.3,65.3c-0.1-0.5,0.6-1.6-0.7-1.6c0.7,0.3,0.5,0.9,0.5,1.4c0,1.7,0,3.4,0,5.2c0,0.4-0.2,1,0.5,1.1
				C646,69.3,646.5,67.3,646.3,65.3z"/>
		</g>
	</g>
</g>
</svg>
